<svg xmlns="http://www.w3.org/2000/svg" width="64.785" height="64.785" viewBox="0 0 64.785 64.785"><defs><style>.a{fill:rgba(34,34,34,0.6);}</style></defs><path class="a" d="M61.936,0H2.849A2.853,2.853,0,0,0,0,2.849V61.936a2.853,2.853,0,0,0,2.849,2.849H61.936a2.853,2.853,0,0,0,2.849-2.849V2.849A2.853,2.853,0,0,0,61.936,0Zm.95,61.936a.951.951,0,0,1-.95.95H2.849a.951.951,0,0,1-.95-.95V12.912H62.886Zm0-50.923H1.9V2.849a.951.951,0,0,1,.95-.95H61.936a.951.951,0,0,1,.95.95Z"/><path class="a" d="M45.762,28.31A3.033,3.033,0,1,0,48.8,31.343,3.036,3.036,0,0,0,45.762,28.31Zm0,4.166A1.133,1.133,0,1,1,46.9,31.343,1.135,1.135,0,0,1,45.762,32.476Z" transform="translate(-37.318 -24.725)"/><path class="a" d="M109.29,28.31a3.033,3.033,0,1,0,3.033,3.033A3.036,3.036,0,0,0,109.29,28.31Zm0,4.166a1.133,1.133,0,1,1,1.133-1.133A1.135,1.135,0,0,1,109.29,32.476Z" transform="translate(-92.8 -24.725)"/><path class="a" d="M172.819,28.31a3.033,3.033,0,1,0,3.033,3.033A3.036,3.036,0,0,0,172.819,28.31Zm0,4.166a1.133,1.133,0,1,1,1.133-1.133A1.135,1.135,0,0,1,172.819,32.476Z" transform="translate(-148.284 -24.725)"/><path class="a" d="M53.818,134.629H101.98a1.715,1.715,0,0,0,1.713-1.713v-4.568a1.715,1.715,0,0,0-1.713-1.713H53.818a1.715,1.715,0,0,0-1.713,1.713v4.568A1.715,1.715,0,0,0,53.818,134.629ZM54,128.535h47.788v4.195H54Z" transform="translate(-45.506 -110.598)"/><path class="a" d="M53.818,214.734H101.98a1.715,1.715,0,0,0,1.713-1.713v-4.568a1.715,1.715,0,0,0-1.713-1.713H59.8a.95.95,0,0,0,0,1.9h41.989v4.195H54V208.64h7.431a.95.95,0,0,0,0-1.9H53.818a1.715,1.715,0,0,0-1.713,1.713v4.568A1.715,1.715,0,0,0,53.818,214.734Z" transform="translate(-45.506 -180.558)"/><path class="a" d="M53.818,301.911H101.98a1.715,1.715,0,0,0,1.713-1.713V294.65a.95.95,0,0,0-1.9,0v5.362H54V288.749h47.788V295.3a.95.95,0,1,0,1.9,0v-6.74a1.715,1.715,0,0,0-1.713-1.713H53.818a1.715,1.715,0,0,0-1.713,1.713V300.2a1.715,1.715,0,0,0,1.713,1.713Z" transform="translate(-45.506 -250.521)"/><path class="a" d="M360.033,422.771H349.291a1.715,1.715,0,0,0-1.713,1.713v3.152a1.715,1.715,0,0,0,1.713,1.713h10.742a1.715,1.715,0,0,0,1.713-1.713v-3.152A1.715,1.715,0,0,0,360.033,422.771Zm-.187,4.678H349.478v-2.778h10.369Z" transform="translate(-303.559 -369.23)"/><path class="a" d="M85.608,321.336h3.13a.95.95,0,0,0,0-1.9h-3.13a.95.95,0,0,0,0,1.9Z" transform="translate(-73.937 -278.982)"/><path class="a" d="M158.037,320.386a.95.95,0,0,0-.95-.95H137.993a.95.95,0,0,0,0,1.9h19.094A.95.95,0,0,0,158.037,320.386Z" transform="translate(-119.687 -278.982)"/><path class="a" d="M210.724,344.958a.95.95,0,1,0,0,1.9h6.983a.95.95,0,1,0,0-1.9Z" transform="translate(-183.207 -301.271)"/><path class="a" d="M164.7,344.958a.95.95,0,0,0,0,1.9h2.177a.95.95,0,1,0,0-1.9Z" transform="translate(-143.013 -301.271)"/><path class="a" d="M85.608,346.858h6.513a.95.95,0,0,0,0-1.9H85.608a.95.95,0,0,0,0,1.9Z" transform="translate(-73.937 -301.271)"/></svg>